GIL02_xslow2_ik
nRows=3
nColumns=375

# SIMM Motion File Header:
name GIL02_xslow2_ik
datacolumns 375
datarows 3
otherdata 1
range 1.19167000 1.20833000
endheader
time	pelvis_tx	pelvis_ty	pelvis_tz	pelvis_tilt	pelvis_list	pelvis_rotation	hip_flexion_r	hip_adduction_r	hip_rotation_r	knee_angle_r	ankle_angle_r	hip_flexion_l	hip_adduction_l	hip_rotation_l	knee_angle_l	ankle_angle_l	lumbar_extension	lumbar_bending	lumbar_rotation	subtalar_angle_r	mtp_angle_r	subtalar_angle_l	mtp_angle_l	asis_r_px	asis_r_py	asis_r_pz	asis_l_px	asis_l_py	asis_l_pz	midasis_px	midasis_py	midasis_pz	psis_r_px	psis_r_py	psis_r_pz	psis_l_px	psis_l_py	psis_l_pz	hip_r_px	hip_r_py	hip_r_pz	hip_l_px	hip_l_py	hip_l_pz	midhip_px	midhip_py	midhip_pz	epicondLat_r_px	epicondLat_r_py	epicondLat_r_pz	epicondMed_r_px	epicondMed_r_py	epicondMed_r_pz	thighwand_r_px	thighwand_r_py	thighwand_r_pz	upperleg1_r_px	upperleg1_r_py	upperleg1_r_pz	upperleg2_r_px	upperleg2_r_py	upperleg2_r_pz	malleolusLat_r_px	malleolusLat_r_py	malleolusLat_r_pz	malleolusMedv_r_px	malleolusMedv_r_py	malleolusMedv_r_pz	shankwand_r_px	shankwand_r_py	shankwand_r_pz	lowerleg1_r_px	lowerleg1_r_py	lowerleg1_r_pz	knee_r_px	knee_r_py	knee_r_pz	ankle_r_px	ankle_r_py	ankle_r_pz	toe_r_px	toe_r_py	toe_r_pz	epicondLat_l_px	epicondLat_l_py	epicondLat_l_pz	epicondMed_l_px	epicondMed_l_py	epicondMed_l_pz	thighwand_l_px	thighwand_l_py	thighwand_l_pz	upperleg1_l_px	upperleg1_l_py	upperleg1_l_pz	upperleg2_l_px	upperleg2_l_py	upperleg2_l_pz	malleolusLat_l_px	malleolusLat_l_py	malleolusLat_l_pz	malleolusMedv_l_px	malleolusMedv_l_py	malleolusMedv_l_pz	shankwand_l_px	shankwand_l_py	shankwand_l_pz	lowerleg1_l_px	lowerleg1_l_py	lowerleg1_l_pz	knee_l_px	knee_l_py	knee_l_pz	ankle_l_px	ankle_l_py	ankle_l_pz	toe_l_px	toe_l_py	toe_l_pz	subclavicle_r_px	subclavicle_r_py	subclavicle_r_pz	subclavicle_l_px	subclavicle_l_py	subclavicle_l_pz	neck_px	neck_py	neck_pz	sternalnotch_px	sternalnotch_py	sternalnotch_pz	xyphoidprocess_px	xyphoidprocess_py	xyphoidprocess_pz	midhip_tx	midhip_ty	midhip_tz	hip_r_tx	hip_r_ty	hip_r_tz	hip_l_tx	hip_l_ty	hip_l_tz	knee_r_tx	knee_r_ty	knee_r_tz	knee_l_tx	knee_l_ty	knee_l_tz	ankle_r_tx	ankle_r_ty	ankle_r_tz	ankle_l_tx	ankle_l_ty	ankle_l_tz	midasis_tx	midasis_ty	midasis_tz	asis_r_tx	asis_r_ty	asis_r_tz	asis_l_tx	asis_l_ty	asis_l_tz	psis_r_tx	psis_r_ty	psis_r_tz	psis_l_tx	psis_l_ty	psis_l_tz	epicondLat_r_tx	epicondLat_r_ty	epicondLat_r_tz	epicondLat_l_tx	epicondLat_l_ty	epicondLat_l_tz	epicondMed_r_tx	epicondMed_r_ty	epicondMed_r_tz	epicondMed_l_tx	epicondMed_l_ty	epicondMed_l_tz	malleolusLat_r_tx	malleolusLat_r_ty	malleolusLat_r_tz	malleolusLat_l_tx	malleolusLat_l_ty	malleolusLat_l_tz	malleolusMedv_r_tx	malleolusMedv_r_ty	malleolusMedv_r_tz	malleolusMedv_l_tx	malleolusMedv_l_ty	malleolusMedv_l_tz	neck_tx	neck_ty	neck_tz	subclavicle_r_tx	subclavicle_r_ty	subclavicle_r_tz	subclavicle_l_tx	subclavicle_l_ty	subclavicle_l_tz	sternalnotch_tx	sternalnotch_ty	sternalnotch_tz	xyphoidprocess_tx	xyphoidprocess_ty	xyphoidprocess_tz	thighwand_r_tx	thighwand_r_ty	thighwand_r_tz	thighwand_l_tx	thighwand_l_ty	thighwand_l_tz	upperleg1_r_tx	upperleg1_r_ty	upperleg1_r_tz	upperleg1_l_tx	upperleg1_l_ty	upperleg1_l_tz	upperleg2_r_tx	upperleg2_r_ty	upperleg2_r_tz	upperleg2_l_tx	upperleg2_l_ty	upperleg2_l_tz	shankwand_r_tx	shankwand_r_ty	shankwand_r_tz	shankwand_l_tx	shankwand_l_ty	shankwand_l_tz	lowerleg1_r_tx	lowerleg1_r_ty	lowerleg1_r_tz	lowerleg1_l_tx	lowerleg1_l_ty	lowerleg1_l_tz	toe_r_tx	toe_r_ty	toe_r_tz	toe_l_tx	toe_l_ty	toe_l_tz	ground_force_vx	ground_force_vy	ground_force_vz	ground_force_px	ground_force_py	ground_force_pz	ground_force_vx	ground_force_vy	ground_force_vz	ground_force_px	ground_force_py	ground_force_pz	ground_torque_x	ground_torque_y	ground_torque_z	ground_torque_x	ground_torque_y	ground_torque_z	ground_marker_px	ground_marker_py	ground_marker_pz	ground_marker_px	ground_marker_py	ground_marker_pz	ground_marker_px	ground_marker_py	ground_marker_pz	ground_marker_px	ground_marker_py	ground_marker_pz	ground_marker_px	ground_marker_py	ground_marker_pz	ground_marker_px	ground_marker_py	ground_marker_pz	ground_marker_px	ground_marker_py	ground_marker_pz	ground_marker_px	ground_marker_py	ground_marker_pz	ground_marker_px	ground_marker_py	ground_marker_pz	ground_marker_px	ground_marker_py	ground_marker_pz	ground_marker_px	ground_marker_py	ground_marker_pz	ground_marker_px	ground_marker_py	ground_marker_pz	ground_marker_px	ground_marker_py	ground_marker_pz	ground_marker_px	ground_marker_py	ground_marker_pz	ground_marker_px	ground_marker_py	ground_marker_pz	ground_marker_px	ground_marker_py	ground_marker_pz	ground_marker_px	ground_marker_py	ground_marker_pz	ground_marker_px	ground_marker_py	ground_marker_pz	ground_marker_px	ground_marker_py	ground_marker_pz	ground_marker_px	ground_marker_py	ground_marker_pz	ground_marker_px	ground_marker_py	ground_marker_pz	ground_marker_px	ground_marker_py	ground_marker_pz	ground_marker_px	ground_marker_py	ground_marker_pz	ground_marker_px	ground_marker_py	ground_marker_pz	ground_marker_px	ground_marker_py	ground_marker_pz	ground_marker_px	ground_marker_py	ground_marker_pz	ground_marker_px	ground_marker_py	ground_marker_pz	ground_marker_px	ground_marker_py	ground_marker_pz	ground_marker_px	ground_marker_py	ground_marker_pz	ground_marker_px	ground_marker_py	ground_marker_pz	ground_marker_px	ground_marker_py	ground_marker_pz	ground_marker_px	ground_marker_py	ground_marker_pz	ground_marker_px	ground_marker_py	ground_marker_pz	ground_marker_px	ground_marker_py	ground_marker_pz	ground_marker_px	ground_marker_py	ground_marker_pz	ground_marker_px	ground_marker_py	ground_marker_pz	ground_marker_px	ground_marker_py	ground_marker_pz
      1.19167000	      1.86007998	      0.93698290	     -0.27941407	     -3.38547697	      0.19269034	      2.90749502	     20.10926545	     -0.80107565	      8.30081063	    -10.40178368	     -6.80589188	    -11.14488436	      3.28631790	      9.68693357	    -17.02266151	      2.11448939	      2.28555440	      2.93847014	     -0.84585812	      0.00000000	      0.00000000	      0.00000000	      0.00000000	      1.91222689	      0.93371946	     -0.16460182	      1.90284348	      0.94155426	     -0.40244760	      1.87306517	      0.93621697	     -0.28007472	      1.72660865	      1.00001412	     -0.24195492	      1.72772779	      0.99909745	     -0.32791835	      1.79479133	      0.87897099	     -0.19870301	      1.78695528	      0.87995728	     -0.35386622	      1.79087331	      0.87946414	     -0.27628461	      1.95310336	      0.48032186	     -0.13165968	      1.90354794	      0.47210437	     -0.23185987	      1.98206615	      0.60780368	     -0.07350873	      1.96122175	      0.66913210	     -0.14434724	      1.97668713	      0.58265719	     -0.16252542	      1.95168143	      0.06580767	     -0.14389614	      1.95844313	      0.08053897	     -0.21390748	      1.97704546	      0.20270053	     -0.06327017	      1.95404550	      0.16764805	     -0.13245987	      1.91270410	      0.47599113	     -0.20087887	      1.95787407	      0.08104906	     -0.18981688	      2.08003681	      0.03984091	     -0.18452495	      1.69697953	      0.44746908	     -0.39376711	      1.67911927	      0.46497129	     -0.28596417	      1.86239684	      0.51499534	     -0.32127444	      1.81786083	      0.58531876	     -0.37283823	      1.77709848	      0.50856927	     -0.36968238	      1.44987598	      0.13147596	     -0.35889546	      1.47383395	      0.13444144	     -0.29632557	      1.55211786	      0.22716253	     -0.44474030	      1.51356608	      0.20976505	     -0.37525325	      1.68127246	      0.47377994	     -0.32726260	      1.47500892	      0.13394613	     -0.31676198	      1.55907430	      0.04485096	     -0.34758535	      1.81695939	      1.34283095	     -0.20090420	      1.82621253	      1.35287298	     -0.30837061	      1.68637069	      1.41144086	     -0.25082357	      1.80378492	      1.35428079	     -0.25265410	      1.89845639	      1.19834986	     -0.27088858	      1.79432500	      0.89086600	     -0.26679800	      1.78993000	      0.86717700	     -0.19904700	      1.78303200	      0.86789300	     -0.34931600	      1.91133400	      0.47330300	     -0.19426300	      1.67989800	      0.46394600	     -0.32445500	      1.95398100	      0.07093500	     -0.20948000	      1.47231100	      0.12382900	     -0.31084800	      1.87760900	      0.94937300	     -0.27797500	      1.88307500	      0.94880600	     -0.15892000	      1.87214300	      0.94994000	     -0.39703100	      1.69369400	      0.99939800	     -0.23222100	      1.69660700	      0.99893700	     -0.31748100	      1.92163400	      0.47717500	     -0.13680700	      1.68600100	      0.45885200	     -0.38190800	      1.87707100	      0.46101400	     -0.24525300	      1.66527200	      0.45801400	     -0.26664200	      1.94582200	      0.06859200	     -0.17039200	      1.45785100	      0.13123600	     -0.34630300	      1.95923100	      0.08655800	     -0.23788500	      1.48097100	      0.13662200	     -0.28383200	      1.69020400	      1.41849600	     -0.24980200	      1.81578000	      1.33457400	     -0.20517700	      1.82099100	      1.33930200	     -0.30880700	      1.80156500	      1.34558100	     -0.25448700	      1.87529800	      1.17847500	     -0.27021000	      1.94140200	      0.57716500	     -0.06601000	      1.84672700	      0.50577500	     -0.32512200	      1.92994600	      0.64450700	     -0.12998000	      1.79476800	      0.57736600	     -0.36894900	      1.94519200	      0.56045600	     -0.15648600	      1.75210900	      0.50060800	     -0.36180700	      1.96001000	      0.20195700	     -0.08157300	      1.55209700	      0.23349100	     -0.43305400	      1.94606700	      0.16981300	     -0.15379700	      1.51699100	      0.21314400	     -0.36201700	      2.08037600	      0.04056700	     -0.20342500	      1.56116700	      0.04080400	     -0.32236600	    -43.52891487	    302.63609497	    -14.75439181	      1.97714905	      0.00000000	     -0.20623787	     54.92812335	    312.63130930	      8.33331797	      1.57008777	      0.00000000	     -0.31042731	      0.00000000	     -0.81861646	      0.00000000	      0.00000000	     -0.43090833	      0.00000000	      1.79432511	      0.89086592	     -0.26679835	      1.78993046	      0.86717707	     -0.19904679	      1.78303170	      0.86789274	     -0.34931612	      1.91133440	      0.47330254	     -0.19426329	      1.67989814	      0.46394581	     -0.32445523	      1.95398116	      0.07093494	     -0.20948046	      1.47231102	      0.12382865	     -0.31084841	      1.87760901	      0.94937313	     -0.27797529	      1.88307476	      0.94880611	     -0.15891956	      1.87214327	      0.94994015	     -0.39703101	      1.69369423	      0.99939811	     -0.23222148	      1.69660676	      0.99893731	     -0.31748086	      1.92163396	      0.47717500	     -0.13680746	      1.68600094	      0.45885175	     -0.38190791	      1.87707138	      0.46101379	     -0.24525307	      1.66527224	      0.45801437	     -0.26664224	      1.94582248	      0.06859189	     -0.17039151	      1.45785105	      0.13123575	     -0.34630325	      1.95923114	      0.08655782	     -0.23788545	      1.48097074	      0.13662209	     -0.28383204	      1.69020402	      1.41849625	     -0.24980220	      1.81577981	      1.33457422	     -0.20517652	      1.82099080	      1.33930159	     -0.30880725	      1.80156457	      1.34558070	     -0.25448689	      1.87529790	      1.17847502	     -0.27021012	      1.94140244	      0.57716453	     -0.06601042	      1.84672749	      0.50577486	     -0.32512239	      1.92994595	      0.64450735	     -0.12997951	      1.79476845	      0.57736558	     -0.36894903	      1.94519222	      0.56045580	     -0.15648589	      1.75210857	      0.50060821	     -0.36180714	      1.96000993	      0.20195746	     -0.08157284	      1.55209684	      0.23349079	     -0.43305400	      1.94606662	      0.16981259	     -0.15379713	      1.51699138	      0.21314353	     -0.36201695	      2.08037567	      0.04056697	     -0.20342502	      1.56116700	      0.04080377	     -0.32236573
      1.20000000	      1.86552102	      0.93779542	     -0.27835846	     -3.35881221	      0.18269684	      2.94367184	     19.75364454	     -0.75522737	      7.89680104	    -10.51872474	     -6.30134261	    -10.86329878	      3.19491535	      9.29242656	    -18.03509853	      1.04046713	      2.30110688	      2.97106538	     -0.80525625	      0.00000000	      0.00000000	      0.00000000	      0.00000000	      1.91774299	      0.93457209	     -0.16357919	      1.90820357	      0.94236990	     -0.40141998	      1.87850615	      0.93703547	     -0.27902732	      1.73204426	      1.00076938	     -0.24082244	      1.73310876	      0.99984145	     -0.32678644	      1.80031122	      0.87976407	     -0.19759765	      1.79237532	      0.88072542	     -0.35275594	      1.79634327	      0.88024474	     -0.27517679	      1.95590881	      0.48004598	     -0.13056427	      1.90689422	      0.47234856	     -0.23107130	      1.98527075	      0.60722239	     -0.07194662	      1.96519833	      0.66883452	     -0.14276189	      1.98026719	      0.58231319	     -0.16105189	      1.95134661	      0.06552127	     -0.14363122	      1.95863996	      0.08033443	     -0.21357188	      1.97729940	      0.20205537	     -0.06258536	      1.95443850	      0.16731775	     -0.13197964	      1.91591656	      0.47610660	     -0.20003275	      1.95793148	      0.08080241	     -0.18948412	      2.08008903	      0.03968358	     -0.18343210	      1.70422545	      0.44793898	     -0.39348996	      1.68702306	      0.46499548	     -0.28550874	      1.86980846	      0.51602907	     -0.32190871	      1.82457803	      0.58630568	     -0.37292900	      1.78421105	      0.50934842	     -0.36975100	      1.45316605	      0.13459962	     -0.35886573	      1.47748944	      0.13694496	     -0.29641061	      1.55615786	      0.22941935	     -0.44477593	      1.51775587	      0.21215899	     -0.37517185	      1.68904499	      0.47378576	     -0.32675838	      1.47855021	      0.13653836	     -0.31685522	      1.55975359	      0.04498537	     -0.34814543	      1.82222050	      1.34360304	     -0.19971445	      1.83132255	      1.35370139	     -0.30718848	      1.69151385	      1.41213790	     -0.24942777	      1.80896834	      1.35506678	     -0.25144143	      1.90373221	      1.19921530	     -0.26987414	      1.79947000	      0.89115600	     -0.26550200	      1.79563900	      0.86808400	     -0.19793500	      1.78862600	      0.86877900	     -0.34820000	      1.91460700	      0.47370300	     -0.19337000	      1.68755700	      0.46398800	     -0.32393400	      1.95413800	      0.07075600	     -0.20927900	      1.47577800	      0.12647900	     -0.31100000	      1.88322700	      0.95030300	     -0.27694100	      1.88878600	      0.94975300	     -0.15784800	      1.87766900	      0.95085300	     -0.39603400	      1.69942400	      1.00026200	     -0.23108100	      1.70236500	      0.99972200	     -0.31626700	      1.92460000	      0.47738300	     -0.13584700	      1.69328300	      0.45911100	     -0.38144500	      1.87990800	      0.46151200	     -0.24415100	      1.67319900	      0.45750900	     -0.26648800	      1.94604100	      0.06841700	     -0.17017700	      1.46107700	      0.13435200	     -0.34625500	      1.95942900	      0.08646300	     -0.23761200	      1.48454900	      0.13918500	     -0.28368100	      1.69527000	      1.41936600	     -0.24844300	      1.82096700	      1.33547800	     -0.20340200	      1.82641700	      1.34065200	     -0.30762600	      1.80675900	      1.34664200	     -0.25315500	      1.88097300	      1.17977700	     -0.26923100	      1.94462000	      0.57688200	     -0.06470100	      1.85486200	      0.50653800	     -0.32561800	      1.93396100	      0.64440000	     -0.12844100	      1.80197300	      0.57778500	     -0.36853700	      1.94857000	      0.56022700	     -0.15500600	      1.75947500	      0.50101700	     -0.36179500	      1.96142500	      0.20163900	     -0.08120000	      1.55581800	      0.23613500	     -0.43299700	      1.94679100	      0.16947800	     -0.15333100	      1.52123400	      0.21521000	     -0.36234100	      2.08035000	      0.04053000	     -0.20333800	      1.56208600	      0.04085600	     -0.32215200	    -44.25113439	    316.68762629	    -16.61994809	      1.97604980	      0.00000000	     -0.20624751	     52.81308846	    292.91187988	      7.87399456	      1.57030310	      0.00000000	     -0.31035397	      0.00000000	     -0.85705664	      0.00000000	      0.00000000	     -0.46140417	      0.00000000	      1.79947042	      0.89115614	     -0.26550186	      1.79563904	      0.86808437	     -0.19793537	      1.78862596	      0.86877859	     -0.34819955	      1.91460717	      0.47370285	     -0.19336979	      1.68755746	      0.46398753	     -0.32393426	      1.95413828	      0.07075553	     -0.20927878	      1.47577822	      0.12647894	     -0.31099993	      1.88322735	      0.95030272	     -0.27694076	      1.88878560	      0.94975251	     -0.15784778	      1.87766922	      0.95085293	     -0.39603376	      1.69942415	      1.00026190	     -0.23108099	      1.70236540	      0.99972236	     -0.31626654	      1.92459965	      0.47738305	     -0.13584712	      1.69328284	      0.45911053	     -0.38144457	      1.87990797	      0.46151188	     -0.24415120	      1.67319894	      0.45750877	     -0.26648840	      1.94604051	      0.06841730	     -0.17017686	      1.46107721	      0.13435242	     -0.34625459	      1.95942855	      0.08646292	     -0.23761193	      1.48454916	      0.13918485	     -0.28368109	      1.69527030	      1.41936564	     -0.24844253	      1.82096732	      1.33547771	     -0.20340215	      1.82641721	      1.34065211	     -0.30762616	      1.80675924	      1.34664178	     -0.25315523	      1.88097322	      1.17977726	     -0.26923135	      1.94461966	      0.57688218	     -0.06470136	      1.85486209	      0.50653839	     -0.32561839	      1.93396068	      0.64439982	     -0.12844075	      1.80197334	      0.57778502	     -0.36853656	      1.94857013	      0.56022668	     -0.15500586	      1.75947511	      0.50101733	     -0.36179489	      1.96142542	      0.20163944	     -0.08120032	      1.55581844	      0.23613544	     -0.43299660	      1.94679070	      0.16947801	     -0.15333053	      1.52123415	      0.21520989	     -0.36234125	      2.08034992	      0.04052967	     -0.20333806	      1.56208611	      0.04085615	     -0.32215175
      1.20833000	      1.87091332	      0.93852383	     -0.27725222	     -3.31944639	      0.17583397	      2.96650242	     19.37180893	     -0.70753649	      7.49936749	    -10.60242600	     -5.82143714	    -10.56788928	      3.08831497	      8.78139607	    -19.06850521	     -0.10065271	      2.32129930	      2.98868246	     -0.79787623	      0.00000000	      0.00000000	      0.00000000	      0.00000000	      1.92318394	      0.93534752	     -0.16249379	      1.91354289	      0.94311581	     -0.40033145	      1.88389869	      0.93777275	     -0.27792626	      1.73740845	      1.00140952	     -0.23966823	      1.73843879	      1.00047403	     -0.32563257	      1.80577616	      0.88045540	     -0.19645944	      1.79777681	      0.88139631	     -0.35161459	      1.80177648	      0.88092585	     -0.27403702	      1.95854784	      0.47964906	     -0.12942416	      1.91009032	      0.47247836	     -0.23023979	      1.98832729	      0.60651100	     -0.07033757	      1.96905250	      0.66840512	     -0.14112852	      1.98370677	      0.58183593	     -0.15952862	      1.95097969	      0.06515535	     -0.14337602	      1.95880695	      0.08005463	     -0.21324064	      1.97746321	      0.20132695	     -0.06189316	      1.95476325	      0.16690203	     -0.13149578	      1.91896745	      0.47610799	     -0.19914235	      1.95795622	      0.08047926	     -0.18915668	      2.08009875	      0.03943613	     -0.18233638	      1.71152309	      0.44832616	     -0.39337938	      1.69515916	      0.46485164	     -0.28518548	      1.87735901	      0.51698567	     -0.32293659	      1.83132946	      0.58723329	     -0.37327759	      1.79139025	      0.51005429	     -0.37007215	      1.45658323	      0.13767201	     -0.35873920	      1.48137121	      0.13934974	     -0.29644546	      1.56016916	      0.23166978	     -0.44483816	      1.52203896	      0.21449826	     -0.37506289	      1.69697810	      0.47364878	     -0.32638332	      1.48228354	      0.13904719	     -0.31689903	      1.56038417	      0.04504775	     -0.34882729	      1.82726272	      1.34430060	     -0.19852882	      1.83629782	      1.35443318	     -0.30600527	      1.69645929	      1.41271204	     -0.24815755	      1.81397153	      1.35576262	     -0.25024616	      1.90888645	      1.20001328	     -0.26876478	      1.80443200	      0.89116600	     -0.26405300	      1.80135100	      0.86894700	     -0.19683600	      1.79425500	      0.86961200	     -0.34709700	      1.91776500	      0.47403500	     -0.19244800	      1.69542100	      0.46394400	     -0.32353000	      1.95427600	      0.07057000	     -0.20909200	      1.47946900	      0.12905900	     -0.31115900	      1.88885000	      0.95120100	     -0.27590300	      1.89447700	      0.95067500	     -0.15672700	      1.88322200	      0.95172800	     -0.39508000	      1.70512100	      1.00104800	     -0.22990800	      1.70818000	      1.00044300	     -0.31503800	      1.92744400	      0.47752800	     -0.13486000	      1.70066900	      0.45932100	     -0.38110700	      1.88354000	      0.46232900	     -0.24313200	      1.68053700	      0.45813000	     -0.26647300	      1.94621000	      0.06822700	     -0.16998300	      1.46447400	      0.13743500	     -0.34617400	      1.95973400	      0.08637900	     -0.23737900	      1.48876400	      0.14174100	     -0.28372200	      1.70004700	      1.42000400	     -0.24721400	      1.82608800	      1.33650500	     -0.20176700	      1.83151100	      1.34185300	     -0.30672900	      1.81192000	      1.34764600	     -0.25184800	      1.88668500	      1.18112900	     -0.26816500	      1.94771000	      0.57661100	     -0.06337100	      1.86318400	      0.50721400	     -0.32649700	      1.93822000	      0.64426700	     -0.12678800	      1.80997900	      0.57763000	     -0.36892400	      1.95220300	      0.56062000	     -0.15312000	      1.76665100	      0.50088200	     -0.36208800	      1.96269100	      0.20127400	     -0.08082500	      1.55959700	      0.23887800	     -0.43298200	      1.94756600	      0.16902900	     -0.15297900	      1.52587500	      0.21767900	     -0.36195300	      2.08035200	      0.04045400	     -0.20326800	      1.56305200	      0.04086700	     -0.32187700	    -45.06392896	    331.49450921	    -18.08184910	      1.97519165	      0.00000000	     -0.20626563	     50.56442640	    272.67239533	      7.41793664	      1.57058618	      0.00000000	     -0.31040546	      0.00000000	     -0.89003662	      0.00000000	      0.00000000	     -0.49050342	      0.00000000	      1.80443239	      0.89116597	     -0.26405269	      1.80135083	      0.86894733	     -0.19683608	      1.79425550	      0.86961156	     -0.34709653	      1.91776514	      0.47403514	     -0.19244845	      1.69542122	      0.46394393	     -0.32353023	      1.95427620	      0.07057006	     -0.20909151	      1.47946858	      0.12905928	     -0.31115893	      1.88884974	      0.95120144	     -0.27590343	      1.89447725	      0.95067465	     -0.15672669	      1.88322222	      0.95172828	     -0.39508018	      1.70512092	      1.00104845	     -0.22990784	      1.70818031	      1.00044286	     -0.31503794	      1.92744350	      0.47752801	     -0.13486044	      1.70066929	      0.45932052	     -0.38110697	      1.88353956	      0.46232855	     -0.24313177	      1.68053651	      0.45813012	     -0.26647270	      1.94620979	      0.06822687	     -0.16998345	      1.46447444	      0.13743481	     -0.34617358	      1.95973444	      0.08637887	     -0.23737912	      1.48876369	      0.14174072	     -0.28372231	      1.70004690	      1.42000401	     -0.24721397	      1.82608807	      1.33650494	     -0.20176721	      1.83151114	      1.34185314	     -0.30672884	      1.81192005	      1.34764612	     -0.25184807	      1.88668513	      1.18112886	     -0.26816481	      1.94770956	      0.57661116	     -0.06337117	      1.86318398	      0.50721425	     -0.32649729	      1.93822002	      0.64426708	     -0.12678809	      1.80997884	      0.57763028	     -0.36892435	      1.95220339	      0.56061959	     -0.15311995	      1.76665103	      0.50088239	     -0.36208779	      1.96269119	      0.20127416	     -0.08082539	      1.55959702	      0.23887837	     -0.43298239	      1.94756556	      0.16902871	     -0.15297893	      1.52587497	      0.21767893	     -0.36195281	      2.08035231	      0.04045437	     -0.20326838	      1.56305206	      0.04086719	     -0.32187712
